<svg xmlns="http://www.w3.org/2000/svg" xml:space="preserve" style="enable-background:new 0 0 316.4 320.2" viewBox="0 0 316.4 320.2"><path d="m313.3 222.6-64.4-96.7 50.7-25.4c6.3-3.2 10.2-9.5 10.2-16.6 0-7.1-3.9-13.4-10.2-16.6L170.3 2.8c-5.8-2.9-12.4-3.6-18.6-2-1.6.3-3.2.8-4.7 1.6l-16.3 8.1-113.9 57-6.6 3.3C5.5 73.2 2 77.5.6 82.6c-1.4 5.1-.5 10.6 2.5 15l64.4 96.7-50.7 25.4c-6.3 3.2-10.2 9.5-10.2 16.6 0 7.1 3.9 13.4 10.2 16.6l129.3 64.7c3.8 1.9 7.9 2.8 12.1 2.8 2.2 0 4.4-.3 6.5-.8 1.6-.3 3.2-.8 4.7-1.6l.9-.4 129.3-64.7 6.6-3.3c4.7-2.4 8.2-6.7 9.6-11.8 1.4-5.3.5-10.8-2.5-15.2zm-151.7 76.7L96.8 202l61.5-30.7L288 236.2l-126.4 63.1zm-6.8-278.4 64.9 97.3-61.5 30.7L28.4 84l126.4-63.1zm4.1 150zm122.2 39.5-100.6-50.3 50.3-25.1 50.3 75.4zm-43.4-101.2-50.3-75.4L288 84l-50.3 25.2zm-202.4.6 100.6 50.3-50.3 25.1-50.3-75.4zM78.7 211l50.3 75.4-100.6-50.2L78.7 211z" style="fill:#33f"/></svg>